<?xml version="1.0" encoding="UTF-8" standalone="no"?>
<!DOCTYPE svg PUBLIC "-//W3C//DTD SVG 1.1//EN" "http://www.w3.org/Graphics/SVG/1.1/DTD/svg11.dtd">
<svg width="100%" height="100%" viewBox="0 0 5216 1276" version="1.1" xmlns="http://www.w3.org/2000/svg" xmlns:xlink="http://www.w3.org/1999/xlink" xml:space="preserve" xmlns:serif="http://www.serif.com/" style="fill-rule:evenodd;clip-rule:evenodd;stroke-linejoin:round;stroke-miterlimit:2;">
    <g transform="matrix(1,0,0,1,-271.162,-2362)">
        <g id="white" transform="matrix(1,0,0,1,-152.765,0)">
            <g transform="matrix(1,0,0,1,457.253,514.724)">
                <text x="995.47px" y="2683.96px" style="font-family:'SpaceGrotesk-Bold', 'Space Grotesk';font-weight:700;font-size:800px;fill:rgb(34,239,240);">spa<tspan x="2379.47px " y="2683.96px ">c</tspan>esh<tspan x="4215.47px " y="2683.96px ">y</tspan>p</text>
            </g>
            <g transform="matrix(1,0,0,1,448.253,468.724)">
                <text x="995.47px" y="2683.96px" style="font-family:'SpaceGrotesk-Bold', 'Space Grotesk';font-weight:700;font-size:800px;fill:rgb(255,75,226);">spa<tspan x="2379.47px " y="2683.96px ">c</tspan>esh<tspan x="4215.47px " y="2683.96px ">y</tspan>p</text>
            </g>
            <g transform="matrix(1,0,0,1,441.253,497.724)">
                <text x="995.47px" y="2683.96px" style="font-family:'SpaceGrotesk-Bold', 'Space Grotesk';font-weight:700;font-size:800px;fill:white;">spa<tspan x="2379.47px " y="2683.96px ">c</tspan>esh<tspan x="4215.47px " y="2683.96px ">y</tspan>p</text>
            </g>
            <g transform="matrix(-0.560794,0,0,0.560794,2137.2,1634.48)">
                <path d="M2247.3,3032.65C2223.35,3086.07 2249.54,3130.9 2336.07,3166.3C2422.6,3201.71 2430.63,3253.58 2431.6,3263.17C2434.88,3295.6 2426.99,3577.63 2271.35,3556.36C2161.58,3541.36 2160.84,3353.02 2160.84,3353.02C2160.84,3353.02 1877.27,3355.04 1802.46,2875.29L2247.3,3032.65Z" style="fill:white;fill-rule:nonzero;"/>
                <path d="M2287.79,3542.38C2283.13,3542.38 2278.33,3542.05 2273.4,3541.38C2177.96,3528.33 2175.98,3354.7 2175.97,3352.95L2175.89,3337.79L2160.73,3337.89C2159.92,3337.88 2094.02,3337.71 2018.71,3281.91C1994.52,3263.98 1967.81,3238.95 1941.62,3204.11C1963.86,3219.72 1990.23,3232.77 2020.88,3239.55C2035.8,3242.84 2050.98,3244.49 2066.44,3244.49C2079.91,3244.49 2093.58,3243.23 2107.44,3240.74C2133.45,3273.56 2168.24,3310.8 2209.94,3339.72C2204.06,3400.22 2212.3,3494.21 2312.03,3522.55C2316.6,3523.84 2320.93,3524.43 2325.05,3524.43C2332.74,3524.43 2339.66,3522.4 2345.97,3519.19C2329.13,3534.74 2309.98,3542.38 2287.79,3542.38ZM2066.33,3219.46C2052.77,3219.46 2039.48,3218.03 2026.47,3215.18C1952.78,3198.98 1905.49,3139.77 1884.24,3106.76C1876.87,3090.8 1869.78,3073.69 1863.04,3055.35C1947.97,3126.57 2034.64,3160.3 2057.91,3168.56C2062.92,3177.22 2073.97,3195.51 2090.25,3218.02C2082.18,3218.98 2074.21,3219.46 2066.33,3219.46Z" style="fill:rgb(185,175,190);fill-rule:nonzero;"/>
                <path d="M2066.44,3244.49C2050.98,3244.49 2035.8,3242.84 2020.88,3239.55C1905.49,3214.05 1850.85,3099.6 1848.58,3094.74C1845.66,3088.49 1848.36,3081.05 1854.62,3078.13C1860.87,3075.21 1868.3,3077.9 1871.23,3084.15C1871.74,3085.23 1923.18,3192.47 2026.47,3215.18C2100.55,3231.45 2183.81,3201.32 2273.92,3125.59C2279.21,3121.15 2287.09,3121.84 2291.53,3127.12C2295.97,3132.4 2295.29,3140.29 2290,3144.73C2211.07,3211.07 2136.08,3244.49 2066.44,3244.49Z" style="fill:rgb(55,26,69);fill-rule:nonzero;"/>
                <path d="M2287.85,3572.64C2281.81,3572.64 2275.63,3572.21 2269.3,3571.35C2165.44,3557.15 2148.86,3413.51 2146.22,3367.15C2120.2,3364.19 2063.12,3352.47 2000.7,3306.21C1925.21,3250.27 1826.95,3130.51 1787.52,2877.62C1786.24,2869.37 1791.88,2861.64 1800.14,2860.35C1808.37,2859.05 1816.12,2864.71 1817.41,2872.96C1855.26,3115.72 1947.77,3229.34 2018.71,3281.91C2094.02,3337.71 2159.92,3337.88 2160.73,3337.89L2175.89,3337.79L2175.97,3352.95C2175.98,3354.7 2177.96,3528.33 2273.4,3541.38C2302.66,3545.36 2326.98,3537.57 2347.74,3517.52C2415.56,3452.05 2418.59,3284.86 2416.55,3264.69C2415.69,3256.13 2407.47,3211.86 2330.34,3180.3C2275.42,3157.83 2242.46,3131.27 2229.6,3099.12C2220.63,3076.69 2221.94,3052.24 2233.5,3026.46C2236.92,3018.84 2245.86,3015.43 2253.49,3018.84C2261.12,3022.26 2264.52,3031.21 2261.11,3038.83C2252.91,3057.1 2251.8,3073.15 2257.69,3087.88C2267.21,3111.69 2295.51,3133.36 2341.8,3152.31C2432.59,3189.46 2445.01,3245.39 2446.65,3261.65C2448.97,3284.64 2446.11,3464.6 2368.75,3539.28C2345.78,3561.46 2318.63,3572.64 2287.85,3572.64Z" style="fill:rgb(55,26,69);fill-rule:nonzero;"/>
                <path d="M2220.91,2313.36C2229.8,2317.24 2449.83,2349.13 2561.39,2425.09C2654.39,2488.43 2623.93,2923.61 2537.42,2986.15C2457.24,3044.1 2248.43,3007.03 2248.43,3007.03L2220.91,2313.36Z" style="fill:white;fill-rule:nonzero;"/>
                <path d="M2220.91,2313.37L2225.38,2426.11L2248.44,3007.04C2248.44,3007.04 2349.69,3025.01 2438.25,3016.33C2476.87,3012.59 2513.04,3003.75 2537.41,2986.14C2623.93,2923.62 2654.4,2488.42 2561.38,2425.08C2449.83,2349.13 2229.81,2317.25 2220.91,2313.37Z" style="fill:white;fill-rule:nonzero;"/>
                <path d="M2473.32,2995.98C2458.95,2978.5 2449.32,2956.47 2443.35,2939.23C2444.04,2935.73 2445.01,2930.23 2445.98,2923.01C2447.38,2921.84 2448.73,2920.65 2450.02,2919.45L2457.16,2926.9L2466.1,2935.46C2472.08,2941.15 2477.97,2946.93 2484.04,2952.52L2502.72,2968.78C2507.41,2973.01 2512.32,2976.97 2517.28,2980.88C2504.71,2987.57 2489.71,2992.48 2473.32,2995.98Z" style="fill:rgb(185,175,190);fill-rule:nonzero;"/>
                <path d="M2226.8,2299.43L2226.96,2299.5L2226.8,2299.43ZM2263.05,2994.03C2307.7,3000.62 2465.02,3019.81 2528.56,2973.89C2571.05,2943.18 2605.15,2789.47 2603.03,2638.25C2601.57,2534.56 2582.36,2457.67 2552.87,2437.6C2462.43,2376 2293.87,2343.29 2238.48,2332.54C2237.9,2332.43 2237.34,2332.32 2236.79,2332.21L2263.05,2994.03ZM2385.13,3033.84C2314.39,3033.84 2250.58,3022.77 2245.79,3021.92L2233.8,3019.79L2204.84,2289.84L2226.28,2299.21C2228.63,2299.81 2236.23,2301.29 2244.24,2302.84C2307.16,2315.05 2474.31,2347.49 2569.9,2412.59C2622.8,2448.62 2632.31,2569.17 2633.27,2637.83C2635.31,2782.69 2603.32,2957.17 2546.28,2998.4C2507.9,3026.14 2444.11,3033.84 2385.13,3033.84Z" style="fill:rgb(55,26,69);fill-rule:nonzero;"/>
                <path d="M2576.92,2449.96C2563.33,2452.56 2549.49,2455.54 2535.84,2458.63C2522.15,2461.75 2508.51,2465.05 2494.98,2468.67C2481.45,2472.28 2467.97,2476.08 2454.76,2480.43C2441.57,2484.77 2428.47,2489.45 2416.19,2495.19L2416.09,2495.23C2411.76,2497.25 2406.62,2495.38 2404.6,2491.06C2402.65,2486.88 2404.35,2481.94 2408.35,2479.78C2421.39,2472.79 2434.73,2467.2 2448.15,2461.94C2461.58,2456.67 2475.14,2452.03 2488.75,2447.58C2502.35,2443.12 2516.04,2438.99 2529.77,2435.05C2543.54,2431.12 2557.21,2427.37 2571.26,2423.86C2578.42,2422.07 2585.67,2426.42 2587.46,2433.58C2589.25,2440.74 2584.89,2447.99 2577.74,2449.78C2577.51,2449.84 2577.28,2449.88 2577.06,2449.93L2576.92,2449.96Z" style="fill:rgb(55,26,69);fill-rule:nonzero;"/>
                <path d="M2620.73,2708.23L2500.34,2717.96C2489.6,2718.83 2480.78,2726.82 2478.92,2737.44C2472.11,2776.34 2461.06,2866.98 2499.02,2896.68C2530.53,2921.32 2581.44,2918.12 2611.14,2892.69C2644.36,2864.24 2647.12,2775.39 2646.33,2731.41C2646.08,2717.74 2634.36,2707.13 2620.73,2708.23Z" style="fill:white;fill-rule:nonzero;"/>
                <path d="M2621.95,2723.31L2501.56,2733.04C2497.67,2733.36 2494.49,2736.24 2493.82,2740.05C2483.89,2796.76 2482.5,2864.55 2508.34,2884.76C2533.5,2904.44 2576.07,2902.81 2601.31,2881.2C2621.4,2864 2632.58,2808.1 2631.2,2731.68C2631.14,2728.46 2629.42,2726.42 2628.4,2725.49C2627.37,2724.57 2625.17,2723.06 2621.95,2723.31ZM2551.61,2928.68C2529.13,2928.68 2506.9,2922.04 2489.7,2908.59C2446.78,2875.01 2455.19,2785.32 2464.02,2734.84C2467.07,2717.45 2481.5,2704.31 2499.12,2702.89L2619.51,2693.15C2630.18,2692.3 2640.8,2695.91 2648.71,2703.08C2656.61,2710.24 2661.25,2720.47 2661.45,2731.14C2662.57,2793.31 2656.45,2873.8 2620.98,2904.18C2601.99,2920.44 2576.65,2928.68 2551.61,2928.68Z" style="fill:rgb(55,26,69);fill-rule:nonzero;"/>
                <path d="M2552.97,2925.25C2550.17,2923.67 2548.84,2922.62 2547.03,2921.27C2545.37,2919.98 2543.77,2918.67 2542.29,2917.3C2539.27,2914.58 2536.52,2911.71 2533.98,2908.7C2528.95,2902.68 2524.49,2896.3 2521.04,2889.49C2513.86,2876.02 2509.57,2861.54 2507.47,2847.11C2505.4,2832.62 2505.39,2818.23 2506.06,2804.29C2506.4,2797.26 2506.99,2790.22 2507.94,2783.2C2509.01,2776.07 2510.01,2769.39 2512.67,2761.9C2513.41,2759.82 2515.68,2758.74 2517.75,2759.47C2519.68,2760.16 2520.75,2762.17 2520.3,2764.11L2520.18,2764.63C2518.87,2770.34 2518.42,2777.47 2518.24,2784.03C2518.1,2790.74 2518.29,2797.49 2518.73,2804.23C2519.61,2817.82 2521.19,2831.06 2524.46,2843.63C2527.76,2856.19 2532.92,2868.04 2539.95,2878.19C2543.33,2883.36 2547.43,2887.9 2551.71,2891.99C2553.86,2894.03 2556.14,2895.89 2558.45,2897.53C2559.6,2898.39 2560.77,2899.12 2561.93,2899.82C2562.94,2900.43 2564.51,2901.26 2564.75,2901.29C2572.32,2902.3 2577.64,2909.26 2576.62,2916.83C2575.61,2924.4 2568.65,2929.71 2561.08,2928.7C2559.29,2928.46 2557.63,2927.89 2556.14,2927.05L2552.97,2925.25Z" style="fill:rgb(55,26,69);fill-rule:nonzero;"/>
                <path d="M1851.77,2453.7C1851.77,2453.7 1809.54,2433.53 1752.1,2389.18C1637.23,2300.42 1461.32,2114.91 1439.72,1800.3C1436.9,1759.3 1343.5,1681.59 1407.29,1642.19C1426.64,1630.23 1449.95,1640.39 1449.95,1640.39C1449.95,1640.39 1427.6,1607.62 1455.77,1580.43C1500.29,1537.48 1577.63,1619.56 1577.63,1619.56C1577.63,1619.56 1568.28,1567.04 1581.53,1532.18C1590.85,1507.76 1618.42,1498.32 1634.99,1501.96C1681.97,1512.29 1721.62,1619.71 1747.58,1682.26C1772.05,1741.19 1774.99,1798.49 1778.17,1857.42C1783.17,1949.28 1788.78,2045.13 1877.62,2157.36C1907.39,2194.93 1946.47,2234.36 1998.01,2276.08L1899.39,2395.88L1851.77,2453.7Z" style="fill:white;fill-rule:nonzero;"/>
                <path d="M1745.85,2364.87C1721.69,2345.25 1695.4,2321.57 1668.86,2293.58C1638.81,2261.89 1606.41,2222.37 1576.07,2174.62C1588.25,2177.74 1600.18,2179.16 1611.81,2179.16C1616.85,2179.16 1621.84,2178.89 1626.76,2178.38C1676.38,2227.63 1733.64,2263.18 1778.69,2295.6C1766.7,2318.99 1755.74,2342.1 1745.85,2364.87ZM1603.83,2153.9C1587.52,2152.72 1571.4,2148.2 1555.5,2140.34C1505.4,2051.78 1464.38,1938.71 1454.81,1799.26C1453.6,1781.69 1441.34,1762.04 1428.35,1741.25C1413.47,1717.42 1396.61,1690.41 1400.82,1672.41C1401.19,1670.82 1401.74,1669.29 1402.48,1667.81C1422.3,1687.62 1447.33,1750.48 1459.24,1764.27C1472.55,1779.69 1484.44,1784.64 1494.17,1784.64C1505.82,1784.64 1514.39,1777.56 1518.65,1772.88C1538.65,1750.9 1489.66,1694.64 1461.43,1650.17C1461.45,1650.14 1461.47,1650.12 1461.5,1650.1C1465.81,1644.98 1466.21,1637.58 1462.53,1631.98C1461.1,1629.81 1449.73,1611.39 1463.19,1594.69C1476.84,1613.8 1495.88,1677.76 1566.58,1726.46C1574.34,1731.81 1582.26,1733.79 1589.78,1733.79C1600.64,1733.79 1610.67,1729.65 1618.24,1725.51C1625.8,1721.36 1630.91,1717.22 1631.91,1717.22C1632.05,1717.22 1632.11,1717.3 1632.08,1717.49C1614.19,1824.05 1514.27,1839.04 1515.3,1917.13C1516.69,2021.93 1554.16,2096.61 1603.83,2153.9Z" style="fill:rgb(185,175,190);fill-rule:nonzero;"/>
                <path d="M1851.76,2468.83C1849.57,2468.83 1847.35,2468.36 1845.24,2467.35C1841.26,2465.45 1746.65,2419.57 1646.91,2314.4C1554.91,2217.38 1441.67,2049.62 1424.63,1801.33C1423.94,1791.3 1413.14,1774 1402.69,1757.27C1384.69,1728.44 1364.29,1695.77 1371.36,1665.52C1374.79,1650.86 1384.2,1638.68 1399.32,1629.34C1408.58,1623.62 1418.32,1621.57 1427.07,1621.32C1424.78,1605.3 1428.05,1586.18 1445.28,1569.55C1457.14,1558.1 1471.63,1552.56 1488.34,1552.9C1514.1,1553.51 1540.17,1568.68 1559.34,1583.19C1559.1,1565.37 1560.73,1544.36 1567.41,1526.81C1579,1496.33 1613.4,1481.7 1638.24,1487.18C1684.92,1497.46 1718.39,1570.91 1754.24,1658.64C1756.78,1664.87 1759.22,1670.84 1761.55,1676.45C1786.82,1737.28 1790.06,1797.2 1793.2,1855.15C1799.75,1976.33 1806.54,2101.63 2007.51,2264.32C2014,2269.58 2015,2279.1 2009.75,2285.59C2004.49,2292.08 1994.97,2293.09 1988.48,2287.83C1777.06,2116.69 1769.58,1978.61 1762.99,1856.79C1759.85,1798.83 1756.89,1744.1 1733.62,1688.05C1731.27,1682.39 1728.8,1676.37 1726.24,1670.08C1703.98,1615.6 1666.72,1524.42 1631.74,1516.72C1622.67,1514.72 1602.32,1520.13 1595.68,1537.57C1586.02,1562.95 1590.13,1603.45 1592.52,1616.92C1593.7,1623.5 1590.41,1630.08 1584.43,1633.08C1578.45,1636.08 1571.21,1634.81 1566.63,1629.94C1554.54,1617.16 1516.75,1583.81 1487.59,1583.14C1479.06,1582.93 1472.27,1585.54 1466.28,1591.32C1448.15,1608.82 1461,1629.66 1462.53,1631.98C1466.21,1637.58 1465.81,1644.98 1461.5,1650.1C1457.18,1655.22 1450.05,1656.95 1443.92,1654.27C1443.86,1654.24 1427.45,1647.52 1415.22,1655.07C1407.08,1660.1 1402.37,1665.78 1400.82,1672.41C1396.61,1690.41 1413.47,1717.42 1428.35,1741.25C1441.34,1762.04 1453.6,1781.69 1454.81,1799.26C1471.23,2038.58 1580.28,2200.17 1668.86,2293.58C1764.79,2394.73 1857.36,2439.61 1858.29,2440.05C1865.82,2443.66 1869.01,2452.69 1865.41,2460.22C1862.81,2465.66 1857.4,2468.83 1851.76,2468.83Z" style="fill:rgb(55,26,69);fill-rule:nonzero;"/>
                <path d="M2755.41,3386.32C2654.33,3415.72 2624.41,3281.08 2624.41,3281.08C2624.41,3281.08 2445.8,3414.49 2289.36,3363.38C2157.92,3320.43 2068.23,3156.12 2068.23,3156.12C2068.23,3156.12 1510.72,2975.79 1752.1,2389.18C1768.67,2348.97 1788.98,2306.81 1813.47,2262.71C1832.3,2228.78 1853.63,2193.69 1877.62,2157.36C1890.19,2138.4 1903.47,2119.09 1917.5,2099.45L2331.41,2322.12L2379.09,2347.82L2391.01,2354.21C2389.98,2357.14 2388.98,2360.04 2388.01,2362.96C2360.61,2446.54 2363.3,2525.32 2375.93,2594.97C2391.91,2683.37 2423.85,2757.08 2430.56,2807.21C2434.27,2834.82 2434.95,2859.74 2434.26,2880.33C2433.1,2917.1 2427.7,2940.18 2427.7,2940.18C2435.9,2965.09 2464.43,3040.32 2528.8,3040.64C2551.12,3040.74 2573.12,3030.41 2594.86,3017.68C2633.36,2995.19 2671.11,2965.27 2708.95,2972.42C2763.56,2982.74 2801.95,3031.4 2823.01,3088.42C2836.16,3124.02 2842.52,3162.9 2841.86,3197.73C2840.76,3257.78 2829.26,3364.89 2755.41,3386.32Z" style="fill:white;fill-rule:nonzero;"/>
                <path d="M2727.57,3375.44C2715.82,3375.44 2705,3372.46 2694.87,3366.48C2654.14,3342.44 2639.32,3278.44 2639.18,3277.82L2634.11,3255.02L2615.38,3268.98C2613.92,3270.06 2491.68,3359.88 2365.39,3359.87C2341.49,3359.87 2317.43,3356.65 2294.04,3349C2169.98,3308.47 2082.39,3150.45 2081.52,3148.86L2078.62,3143.57L2072.91,3141.72C2070.28,3140.86 1808.83,3053.45 1729.59,2812.79C1726.97,2804.83 1724.58,2796.8 1722.4,2788.7C1740.34,2806.5 1763.11,2824.41 1787.15,2841.17C1866.45,2968.6 1992.45,3037.11 2055.27,3065C2079.64,3075.82 2100.46,3093.2 2115.37,3115.3C2149.61,3166.03 2221.68,3257.08 2314.63,3287.46C2337.71,3295 2360.56,3298.17 2382.95,3298.17C2442.12,3298.17 2498.13,3276.04 2546.95,3253.92C2595.76,3231.79 2637.37,3209.67 2667.72,3209.67C2673.4,3209.67 2678.68,3210.44 2683.55,3212.14C2697.69,3217.06 2642.65,3350.38 2739.75,3374.42C2735.58,3375.1 2731.52,3375.44 2727.57,3375.44Z" style="fill:rgb(185,175,190);fill-rule:nonzero;"/>
                <path d="M2727.52,3405.68C2710.37,3405.68 2694.26,3401.27 2679.38,3392.45C2643.95,3371.48 2624.76,3330.41 2615.91,3305.35C2575.97,3331.51 2474.23,3390.26 2366.2,3390.27C2339.11,3390.27 2311.65,3386.58 2284.64,3377.76C2160.92,3337.33 2074.86,3197.86 2057.91,3168.56C2016.94,3154.02 1779.48,3060.54 1700.95,2822.53C1634.12,2619.99 1702.83,2373.75 1905.18,2090.66C1910.04,2083.86 1919.49,2082.29 1926.28,2087.14C1933.08,2092 1934.65,2101.45 1929.79,2108.24C1733.46,2382.92 1666.1,2619.96 1729.59,2812.79C1808.83,3053.45 2070.28,3140.86 2072.91,3141.72L2078.62,3143.57L2081.52,3148.86C2082.39,3150.45 2169.98,3308.47 2294.04,3349C2317.43,3356.65 2341.49,3359.87 2365.39,3359.87C2491.68,3359.88 2613.92,3270.06 2615.38,3268.98L2634.11,3255.02L2639.18,3277.82C2639.32,3278.44 2654.14,3342.44 2694.87,3366.48C2711.45,3376.26 2729.88,3378.02 2751.2,3371.82C2814.44,3353.43 2825.68,3254.68 2826.75,3197.45C2828.44,3107.67 2782.81,3001.79 2706.15,2987.29C2680.72,2982.47 2652.67,2999.87 2622.98,3018.29C2593.27,3036.71 2562.57,3055.76 2529.13,3055.76L2528.72,3055.76C2478.49,3055.52 2436.44,3015.12 2413.34,2944.9L2412.02,2940.87L2412.98,2936.74C2413.1,2936.22 2425.3,2881.96 2415.56,2809.22C2412.57,2786.88 2404.05,2758.78 2394.18,2726.24C2364.84,2629.52 2324.66,2497.05 2376.74,2349.19C2379.52,2341.31 2388.15,2337.17 2396.03,2339.94C2403.91,2342.72 2408.05,2351.36 2405.27,2359.23C2356.48,2497.75 2395,2624.74 2423.12,2717.46C2433.37,2751.25 2442.23,2780.44 2445.54,2805.21C2454.54,2872.43 2446.28,2924.19 2443.35,2939.23C2455.05,2973.04 2480.88,3025.28 2528.86,3025.51L2529.12,3025.51C2553.95,3025.51 2580.93,3008.77 2607.03,2992.58C2640.33,2971.92 2674.78,2950.57 2711.78,2957.56C2805.17,2975.24 2858.95,3093.7 2857,3198.02C2854.85,3312.83 2821.18,3382.97 2759.64,3400.86C2748.58,3404.08 2737.86,3405.68 2727.52,3405.68Z" style="fill:rgb(55,26,69);fill-rule:nonzero;"/>
                <path d="M1744.73,1722.49C1745.79,1652.9 1687.05,1597.19 1672.33,1591.07C1661.11,1586.4 1616.46,1602.66 1628.06,1637.95C1639.67,1673.24 1660.18,1686.12 1653.48,1695.54C1646.77,1704.96 1607.63,1728.37 1611.93,1779.55" style="fill:white;fill-rule:nonzero;"/>
                <path d="M1742.21,1722.46C1737.02,1706.29 1731.18,1692.08 1724.01,1678.58C1716.96,1665.11 1708.78,1652.4 1699.61,1640.37C1695.05,1634.36 1690.28,1628.49 1685.28,1622.91C1680.29,1617.45 1674.96,1611.88 1669.82,1607.88C1668.71,1607.08 1667.16,1605.85 1666.83,1605.74L1666.41,1605.42C1666.44,1605.44 1666.86,1605.68 1667.11,1605.71C1668.02,1605.79 1667.58,1605.77 1667.4,1605.75C1666.28,1605.66 1663.25,1605.92 1660.56,1606.9C1654.94,1608.53 1649.58,1612.01 1646.2,1615.69C1639.43,1623.61 1640.81,1628.84 1647.96,1644.46C1651.15,1650.97 1654.85,1657.15 1659.17,1663.66C1661.39,1667 1663.61,1670.34 1666.25,1674.88C1666.94,1676.21 1667.54,1677.08 1668.28,1678.81C1668.98,1680.35 1669.67,1681.83 1670.31,1684.23C1670.97,1686.07 1671.39,1689.37 1671.34,1692.33C1671.07,1695.77 1670.25,1699.44 1668.55,1702.31C1666.62,1705.9 1665.71,1706.42 1664.38,1708.08C1663.17,1709.41 1662.43,1710.02 1661.43,1711.02L1656.6,1715.39C1653.55,1718.07 1650.79,1720.44 1648.11,1722.98C1642.84,1728.02 1638.29,1733.26 1634.12,1738.81C1629.96,1744.37 1626.35,1750.35 1623.05,1757.01C1619.65,1763.68 1617.38,1771.09 1614.44,1779.34L1614.37,1779.54C1613.88,1780.94 1612.35,1781.66 1610.95,1781.17C1610.25,1780.92 1609.71,1780.39 1609.42,1779.76C1608.49,1777.72 1607.63,1775.62 1606.89,1773.46L1605.75,1770.2L1605.08,1766.86C1604.67,1764.62 1604.12,1762.31 1603.92,1760C1603.76,1757.69 1603.71,1755.36 1603.65,1752.98C1603.82,1743.57 1606,1733.98 1609.87,1725.18C1613.71,1716.34 1619.32,1708.48 1625.34,1701.57C1628.34,1698.15 1631.43,1694.74 1634.41,1691.82L1638.54,1687.7C1638.96,1687.22 1639.75,1686.44 1639.88,1686.22C1639.82,1686.26 1640.46,1685.37 1639.31,1687.03C1638.81,1688.16 1638.14,1689.71 1638.22,1691.15C1637.98,1692.06 1638.4,1693.28 1638.31,1693.17C1638.28,1693.21 1638.48,1693.51 1638.36,1693.3C1638.27,1693.15 1638.2,1693 1638.14,1692.85C1638.12,1692.66 1637.56,1691.81 1637.31,1691.31C1635.83,1688.73 1633.42,1685.27 1631.2,1681.69C1626.6,1674.38 1622.02,1666.28 1618.46,1657.79C1616.67,1653.54 1615.04,1649.21 1613.65,1644.82C1612.91,1642.93 1612.24,1639.61 1611.64,1636.92C1610.89,1634.19 1610.82,1631.07 1610.7,1628.03C1610.46,1621.94 1611.83,1615.56 1614.11,1609.77C1615.36,1606.97 1616.88,1604.26 1618.47,1601.72C1620.25,1599.42 1621.9,1596.8 1623.95,1594.91C1625.93,1592.86 1627.95,1590.87 1630.14,1589.28C1632.26,1587.5 1634.51,1586.06 1636.78,1584.68C1641.32,1581.89 1646.04,1579.67 1651.1,1577.98C1653.62,1577.13 1656.23,1576.41 1659.04,1575.87C1660.35,1575.54 1661.88,1575.34 1663.44,1575.19C1664.97,1575.03 1666.44,1574.84 1668.44,1574.95C1670.31,1575.02 1671.95,1574.97 1674.83,1575.73C1676.06,1576.04 1677.51,1576.45 1678.49,1576.85L1680.8,1577.97C1684.22,1579.6 1685.91,1580.94 1688.22,1582.41C1696.37,1588.14 1702.85,1594.13 1709.17,1600.6C1712.24,1603.85 1715.32,1607.1 1718.05,1610.62C1720.91,1614.04 1723.58,1617.6 1726.09,1621.28C1736.19,1635.9 1744.14,1652.24 1748.31,1669.72C1752.4,1687.12 1752.87,1705.74 1747.25,1722.53C1746.79,1723.92 1745.29,1724.66 1743.9,1724.2C1743.08,1723.92 1742.48,1723.28 1742.23,1722.51L1742.21,1722.46Z" style="fill:rgb(55,26,69);fill-rule:nonzero;"/>
                <path d="M1705.61,2464.75L1723.89,2741.61L1856.17,2848.74L1926.12,2905.39C1926.12,2905.39 1998.32,2921.33 2015.92,2924.95C2039.77,2929.9 2047.22,2901.97 2046.8,2883.47C2046.11,2851.81 2048.54,2822.34 2052.45,2795.17C2058.79,2751.32 2069.03,2713.4 2076.29,2681.66C2082.25,2655.61 2069.96,2628.75 2046.2,2616.47C1904.36,2543.26 1774.45,2456.59 1774.45,2456.59L1705.61,2464.75Z" style="fill:white;fill-rule:nonzero;"/>
                <path d="M1932.81,2891.5C1947.4,2894.72 2003.86,2907.15 2018.94,2910.27C2022.59,2911.02 2023.8,2910.02 2024.52,2909.41C2028.92,2905.75 2032.06,2894.74 2031.82,2883.81C2030.2,2810.28 2044.83,2749.09 2056.58,2699.92C2058.37,2692.42 2060.09,2685.23 2061.68,2678.33C2066.13,2658.85 2056.94,2638.9 2039.32,2629.8C1913.31,2564.75 1795.29,2488.24 1770.76,2472.14L1721.52,2477.96L1738.42,2734.08L1932.81,2891.5ZM2021.33,2940.54C2018.58,2940.54 2015.75,2940.24 2012.86,2939.65C1995.4,2936.03 1925.84,2920.69 1922.89,2920.04C1920.61,2919.53 1918.49,2918.51 1916.68,2917.05L1714.44,2753.27C1711.19,2750.64 1709.19,2746.77 1708.91,2742.6L1690.65,2465.72C1690.12,2457.76 1695.93,2450.78 1703.85,2449.84L1772.68,2441.7C1776.23,2441.28 1779.8,2442.14 1782.77,2444.12C1784.06,2444.98 1913.67,2531.17 2053.09,2603.15C2082.87,2618.52 2098.43,2652.19 2090.92,2685.02C2089.32,2692.01 2087.58,2699.3 2085.76,2706.89C2074.41,2754.39 2060.28,2813.49 2061.81,2883.15C2062.17,2899.41 2057.6,2920.9 2043.72,2932.46C2037.3,2937.81 2029.67,2940.54 2021.33,2940.54Z" style="fill:rgb(55,26,69);fill-rule:nonzero;"/>
                <path d="M2021.28,2910.54C2020.63,2910.54 2019.87,2910.46 2018.94,2910.27C2012.38,2908.91 1997.99,2905.79 1982.62,2902.44C1987.19,2895.18 1989.62,2886.63 1989.57,2877.42C1989.23,2814.02 1995.09,2755.09 2000.3,2715.61C2003.82,2728.52 2007.77,2743.12 2016.79,2756.86C2009.3,2763.89 2002.62,2773.5 1998.63,2786.65C1989.33,2817.31 2001.54,2851.65 2031.81,2883.64C2031.81,2883.7 2031.82,2883.76 2031.82,2883.81C2032.06,2894.74 2028.92,2905.75 2024.52,2909.41C2023.98,2909.86 2023.17,2910.54 2021.28,2910.54Z" style="fill:rgb(195,186,199);fill-rule:nonzero;"/>
                <path d="M2021.29,2925.53C2019.6,2925.53 2017.81,2925.34 2015.92,2924.95C2008,2923.32 1989.04,2919.2 1970.57,2915.16C1975.49,2911.65 1979.54,2907.34 1982.62,2902.44C1997.99,2905.79 2012.38,2908.91 2018.94,2910.27C2019.87,2910.46 2020.63,2910.54 2021.28,2910.54C2023.17,2910.54 2023.98,2909.86 2024.52,2909.41C2028.92,2905.75 2032.06,2894.74 2031.82,2883.81C2031.82,2883.76 2031.81,2883.7 2031.81,2883.64C2036.11,2888.18 2040.76,2892.67 2045.78,2897.1C2045.75,2897.27 2045.72,2897.44 2045.69,2897.6C2043.1,2911.69 2035.87,2925.53 2021.29,2925.53Z" style="fill:rgb(55,26,69);fill-rule:nonzero;"/>
                <path d="M1715.02,2643.34C1709.91,2665.27 1701.17,2691.79 1701.17,2691.79C1701.17,2691.79 1744.59,2706.43 1748.2,2707.27C1760.13,2710.05 1775.74,2686.83 1783.07,2655.4C1790.41,2623.97 1786.69,2596.23 1774.76,2593.45C1766.03,2591.41 1731.28,2579.28 1731.28,2579.28C1731.28,2579.28 1716.99,2634.91 1715.02,2643.34Z" style="fill:white;fill-rule:nonzero;"/>
                <path d="M1688.1,2628.98C1680.77,2660.41 1687.69,2688.89 1703.57,2692.59C1719.45,2696.3 1738.26,2673.82 1745.6,2642.39C1752.93,2610.96 1746.01,2582.48 1730.13,2578.77C1714.25,2575.07 1695.43,2597.54 1688.1,2628.98Z" style="fill:white;fill-rule:nonzero;"/>
                <path d="M1702.35,2477.03C1700.52,2501.69 1697.47,2540.84 1695.56,2581.94C1692.83,2640.74 1692.39,2703.45 1701.13,2732.97C1716.33,2784.33 1840.67,2864.01 1926.15,2905.4C1948.57,2916.26 1974.71,2902.44 1974.57,2877.5C1974.36,2836.7 1976.66,2797.83 1979.75,2764.48C1982.66,2732.91 1986.26,2706.29 1989.16,2687.62C1991.81,2670.49 1982.74,2653.73 1967.02,2646.43C1830.33,2583.15 1753.2,2506.96 1721.63,2470.6C1715.21,2463.2 1703.09,2467.25 1702.35,2477.03Z" style="fill:white;fill-rule:nonzero;"/>
                <path d="M1942.24,2894.16C1939.06,2894.16 1935.79,2893.41 1932.68,2891.9C1837.89,2845.99 1727.91,2770.55 1715.52,2728.71C1713.71,2722.58 1712.33,2714.79 1711.3,2705.74C1725.64,2710.55 1743.22,2716.38 1745.93,2717.01C1747.43,2717.36 1748.91,2717.53 1750.38,2717.53C1767.55,2717.53 1781.95,2694.32 1789.92,2668.41C1789.38,2675.15 1788.26,2682.37 1786.52,2689.81C1781.27,2712.32 1771.75,2730.63 1762.41,2738.18C1778.85,2759.18 1798.43,2775.93 1821.68,2785.09C1848.93,2795.8 1872.46,2799.93 1892.56,2799.93C1924.59,2799.93 1947.87,2789.45 1963.47,2778.46C1961.05,2808.52 1959.38,2842.37 1959.57,2877.59C1959.61,2885.5 1955.01,2889.59 1952.27,2891.32C1949.28,2893.21 1945.82,2894.16 1942.24,2894.16Z" style="fill:rgb(195,186,199);fill-rule:nonzero;"/>
                <path d="M1716.61,2487.53C1712.02,2548.69 1702.2,2683.68 1715.52,2728.71C1727.91,2770.55 1837.89,2845.99 1932.68,2891.9C1939.29,2895.11 1946.62,2894.89 1952.27,2891.32C1955.01,2889.59 1959.61,2885.5 1959.57,2877.59C1959.13,2796.27 1968.63,2722.23 1974.32,2685.33C1975.93,2674.9 1970.33,2664.5 1960.71,2660.04C1831.07,2600 1753.92,2528.78 1716.61,2487.53ZM1942.26,2924.18C1934.62,2924.18 1926.89,2922.43 1919.6,2918.9C1861.46,2890.75 1706.3,2803.22 1686.76,2737.22C1671.62,2686.08 1681.97,2548.2 1686.94,2481.93L1687.39,2475.9C1688.18,2465.39 1695.15,2456.45 1705.15,2453.13C1715.14,2449.81 1726.06,2452.81 1732.97,2460.76C1765.93,2498.71 1840.97,2571.53 1973.31,2632.82C1995,2642.87 2007.61,2666.34 2003.97,2689.91C1998.41,2725.93 1989.14,2798.18 1989.57,2877.42C1989.66,2893.79 1981.9,2908.11 1968.27,2916.7C1960.39,2921.67 1951.4,2924.18 1942.26,2924.18Z" style="fill:rgb(55,26,69);fill-rule:nonzero;"/>
                <g>
                    <path d="M1715.02,2643.34C1709.91,2665.27 1701.17,2691.79 1701.17,2691.79C1701.17,2691.79 1744.59,2706.43 1748.2,2707.27C1760.13,2710.05 1775.74,2686.83 1783.07,2655.4C1790.41,2623.97 1786.69,2596.23 1774.76,2593.45C1766.03,2591.41 1731.28,2579.28 1731.28,2579.28C1731.28,2579.28 1716.99,2634.91 1715.02,2643.34Z" style="fill:rgb(34,239,240);fill-rule:nonzero;"/>
                    <path d="M1776.48,2616.97C1774.93,2615.14 1773.13,2613.94 1771.09,2613.47C1766.97,2612.5 1757.05,2609.28 1747.73,2606.15C1747.34,2603.51 1746.83,2601 1746.19,2598.65C1746.19,2598.66 1746.18,2598.67 1746.18,2598.68C1745.79,2597.23 1745.34,2595.83 1744.85,2594.51C1755.21,2598 1767.31,2601.96 1772.15,2603.06C1773.69,2604.1 1775.66,2608.89 1776.48,2616.97Z" style="fill:rgb(211,237,252);fill-rule:nonzero;"/>
                    <path d="M1750.54,2697.55C1748.55,2697.04 1735.45,2692.73 1720.53,2687.74C1727.36,2682.52 1733.83,2673.69 1738.84,2662.56C1746.71,2665.16 1753.32,2667.3 1754.63,2667.62C1755.28,2667.77 1755.94,2667.84 1756.61,2667.84C1761.68,2667.84 1767.29,2663.55 1772.58,2656.24C1765.49,2683.99 1753.78,2697 1750.54,2697.55Z" style="fill:rgb(40,182,188);fill-rule:nonzero;"/>
                    <path d="M1713.68,2685.45C1731.23,2691.34 1748.25,2696.96 1750.54,2697.55C1753.89,2696.98 1766.36,2683.02 1773.34,2653.13C1780.31,2623.23 1775.31,2605.2 1772.15,2603.06C1766.24,2601.71 1749.45,2596.09 1738.27,2592.27C1734.03,2608.8 1726.16,2639.62 1724.76,2645.61C1721.45,2659.8 1716.73,2675.64 1713.68,2685.45ZM1750.38,2717.53C1748.91,2717.53 1747.43,2717.36 1745.93,2717.01C1742.25,2716.15 1711.17,2705.71 1697.97,2701.27C1692.76,2699.51 1689.95,2693.88 1691.67,2688.66C1691.76,2688.4 1700.33,2662.29 1705.28,2641.06C1707.25,2632.62 1721.01,2579.07 1721.59,2576.79C1722.29,2574.09 1724.09,2571.79 1726.55,2570.47C1729.02,2569.15 1731.93,2568.92 1734.57,2569.84C1744.1,2573.17 1770.3,2582.14 1777.03,2583.71C1782.88,2585.07 1793.14,2590.61 1796.05,2612.35C1797.78,2625.22 1796.63,2641.32 1792.81,2657.67C1785.85,2687.53 1769.9,2717.53 1750.38,2717.53Z" style="fill:rgb(55,26,69);fill-rule:nonzero;"/>
                    <path d="M1688.1,2628.98C1680.77,2660.41 1687.69,2688.89 1703.57,2692.59C1719.45,2696.3 1738.26,2673.82 1745.6,2642.39C1752.93,2610.96 1746.01,2582.48 1730.13,2578.77C1714.25,2575.07 1695.43,2597.54 1688.1,2628.98Z" style="fill:rgb(34,239,240);fill-rule:nonzero;"/>
                    <path d="M1740.82,2657.9C1740.82,2657.88 1740.83,2657.85 1740.83,2657.83C1741.39,2656.39 1741.93,2654.93 1742.44,2653.43C1741.93,2654.95 1741.38,2656.44 1740.82,2657.9ZM1745.6,2642.41C1746.23,2639.71 1746.75,2637.04 1747.17,2634.41C1746.75,2637.04 1746.23,2639.72 1745.6,2642.41ZM1747.18,2634.4C1747.18,2634.37 1747.19,2634.34 1747.19,2634.31C1747.19,2634.34 1747.18,2634.37 1747.18,2634.4Z" style="fill:rgb(211,237,252);fill-rule:nonzero;"/>
                    <path d="M1726.59,2588.37C1718.52,2588.37 1704.21,2603.94 1697.84,2631.25C1691.12,2660.04 1698.09,2681.05 1705.84,2682.86C1713.59,2684.68 1729.14,2668.91 1735.86,2640.12C1742.58,2611.32 1735.61,2590.32 1727.86,2588.51C1727.45,2588.42 1727.03,2588.37 1726.59,2588.37ZM1707.09,2703C1705.16,2703 1703.22,2702.78 1701.3,2702.33C1679.36,2697.21 1669.5,2664.7 1678.36,2626.7C1687.23,2588.71 1710.44,2563.92 1732.4,2569.03C1754.34,2574.16 1764.2,2606.67 1755.34,2644.67C1747.25,2679.33 1727.2,2703 1707.09,2703Z" style="fill:rgb(55,26,69);fill-rule:nonzero;"/>
                    <path d="M1746.18,2598.68C1745.78,2597.23 1745.34,2595.84 1744.85,2594.51C1745.34,2595.83 1745.79,2597.23 1746.18,2598.68Z" style="fill:rgb(246,251,254);fill-rule:nonzero;"/>
                    <path d="M1744.85,2594.51C1742.98,2589.46 1740.42,2585.37 1737.27,2582.57C1740.43,2585.36 1742.98,2589.45 1744.85,2594.51Z" style="fill:rgb(215,209,218);fill-rule:nonzero;"/>
                    <path d="M1687.23,2633.17C1687.49,2631.78 1687.79,2630.39 1688.11,2628.97C1694.91,2599.82 1711.59,2578.38 1726.64,2578.38C1727.81,2578.38 1728.98,2578.52 1730.13,2578.78C1732.77,2579.4 1735.16,2580.69 1737.27,2582.57C1740.42,2585.37 1742.98,2589.46 1744.85,2594.51C1745.34,2595.84 1745.78,2597.23 1746.18,2598.68C1746,2599.55 1745.81,2600.42 1745.6,2601.28C1744.11,2607.65 1742.15,2613.65 1739.84,2619.14C1736.85,2609.03 1731.42,2602.04 1724.1,2600.33C1722.96,2600.07 1721.81,2599.94 1720.64,2599.94C1708.87,2599.94 1696.07,2613.06 1687.83,2632.72C1687.73,2632.38 1687.63,2632.03 1687.53,2631.68C1687.43,2632.17 1687.33,2632.67 1687.23,2633.17Z" style="fill:rgb(211,237,252);fill-rule:nonzero;"/>
                    <path d="M1738.84,2662.56C1739.53,2661.02 1740.2,2659.44 1740.83,2657.82L1740.83,2657.83C1740.2,2659.45 1739.53,2661.02 1738.84,2662.56Z" style="fill:rgb(40,124,188);fill-rule:nonzero;"/>
                    <path d="M1720.53,2687.74L1720.52,2687.74C1727.36,2682.52 1733.83,2673.69 1738.84,2662.56C1733.83,2673.69 1727.36,2682.52 1720.53,2687.74Z" style="fill:rgb(45,94,152);fill-rule:nonzero;"/>
                    <path d="M1707.08,2693C1706.19,2693 1705.31,2692.92 1704.43,2692.77C1705.3,2692.92 1706.18,2692.99 1707.06,2692.99C1711.51,2693 1716.09,2691.12 1720.52,2687.74L1720.53,2687.74C1716.1,2691.13 1711.52,2693 1707.08,2693Z" style="fill:rgb(55,26,69);fill-rule:nonzero;"/>
                    <path d="M1707.06,2692.99C1706.18,2692.99 1705.3,2692.92 1704.43,2692.77C1704.15,2692.72 1703.87,2692.66 1703.58,2692.6C1688.41,2689.04 1681.4,2662.91 1687.23,2633.17C1687.11,2633.81 1686.99,2634.44 1686.88,2635.07C1687.19,2634.28 1687.51,2633.5 1687.83,2632.72C1690.85,2642.8 1696.25,2649.78 1703.55,2651.46C1704.71,2651.73 1705.88,2651.86 1707.07,2651.86C1718.83,2651.86 1731.58,2638.77 1739.84,2619.14C1742.91,2629.51 1743.43,2643.18 1740.83,2657.82C1740.2,2659.44 1739.53,2661.02 1738.84,2662.56C1733.83,2673.69 1727.36,2682.52 1720.52,2687.74C1716.09,2691.12 1711.51,2693 1707.06,2692.99Z" style="fill:rgb(40,182,188);fill-rule:nonzero;"/>
                    <path d="M1742.44,2653.43C1742.68,2652.72 1742.92,2652 1743.15,2651.27C1743.56,2649.99 1743.95,2648.69 1744.32,2647.37C1744.78,2645.74 1745.21,2644.09 1745.6,2642.41C1744.71,2646.22 1743.65,2649.91 1742.44,2653.43Z" style="fill:rgb(40,124,188);fill-rule:nonzero;"/>
                    <path d="M1743.15,2651.27C1743.56,2649.99 1743.95,2648.69 1744.32,2647.37C1743.95,2648.69 1743.56,2649.99 1743.15,2651.27Z" style="fill:rgb(40,124,188);fill-rule:nonzero;"/>
                    <path d="M1747.17,2634.41L1747.18,2634.4L1747.17,2634.41ZM1747.19,2634.31C1748.81,2624.13 1748.92,2614.48 1747.71,2606.15L1747.73,2606.15C1748.93,2614.48 1748.81,2624.13 1747.19,2634.31Z" style="fill:rgb(40,124,188);fill-rule:nonzero;"/>
                    <path d="M1747.73,2606.15L1747.71,2606.15C1747.33,2603.52 1746.82,2601.02 1746.18,2598.68C1746.18,2598.67 1746.19,2598.66 1746.19,2598.65C1746.83,2601 1747.34,2603.51 1747.73,2606.15Z" style="fill:rgb(164,173,197);fill-rule:nonzero;"/>
                    <path d="M1740.83,2657.83L1740.83,2657.82C1741.66,2655.7 1742.43,2653.52 1743.15,2651.27C1742.92,2652 1742.68,2652.72 1742.44,2653.43C1741.93,2654.93 1741.39,2656.39 1740.83,2657.83ZM1744.32,2647.37C1744.78,2645.74 1745.2,2644.08 1745.6,2642.39C1748.66,2629.27 1749.24,2616.66 1747.71,2606.15C1748.92,2614.48 1748.81,2624.13 1747.19,2634.31C1747.19,2634.34 1747.18,2634.37 1747.18,2634.4L1747.17,2634.41C1746.75,2637.04 1746.23,2639.71 1745.6,2642.41C1745.21,2644.09 1744.78,2645.74 1744.32,2647.37Z" style="fill:rgb(164,173,197);fill-rule:nonzero;"/>
                    <path d="M1747.71,2606.15C1747.33,2603.52 1746.82,2601.02 1746.18,2598.68C1746.82,2601.02 1747.33,2603.52 1747.71,2606.15Z" style="fill:rgb(188,183,198);fill-rule:nonzero;"/>
                    <path d="M1740.83,2657.82C1743.43,2643.18 1742.91,2629.51 1739.84,2619.14C1742.15,2613.65 1744.11,2607.65 1745.6,2601.28C1745.81,2600.42 1746,2599.55 1746.18,2598.68C1746.82,2601.02 1747.33,2603.52 1747.71,2606.15C1749.24,2616.66 1748.66,2629.27 1745.6,2642.39C1745.2,2644.08 1744.78,2645.74 1744.32,2647.37C1743.95,2648.69 1743.56,2649.99 1743.15,2651.27C1742.43,2653.52 1741.66,2655.7 1740.83,2657.82ZM1686.88,2635.07C1686.99,2634.44 1687.11,2633.81 1687.23,2633.17C1687.33,2632.67 1687.43,2632.17 1687.53,2631.68C1687.63,2632.03 1687.73,2632.38 1687.83,2632.72C1687.51,2633.5 1687.19,2634.28 1686.88,2635.07Z" style="fill:rgb(164,173,197);fill-rule:nonzero;"/>
                    <path d="M1726.59,2588.37C1718.52,2588.37 1704.21,2603.94 1697.84,2631.25C1691.12,2660.04 1698.09,2681.05 1705.84,2682.86C1713.59,2684.68 1729.14,2668.91 1735.86,2640.12C1742.58,2611.32 1735.61,2590.32 1727.86,2588.51C1727.45,2588.42 1727.03,2588.37 1726.59,2588.37ZM1707.09,2703C1705.16,2703 1703.22,2702.78 1701.3,2702.33C1679.36,2697.21 1669.5,2664.7 1678.36,2626.7C1687.23,2588.71 1710.44,2563.92 1732.4,2569.03C1754.34,2574.16 1764.2,2606.67 1755.34,2644.67C1752.32,2657.6 1747.64,2669 1741.91,2678.21C1732.28,2693.7 1719.7,2703 1707.09,2703Z" style="fill:rgb(55,26,69);fill-rule:nonzero;"/>
                </g>
                <g transform="matrix(0.624962,0,0,0.624962,822.514,1151.64)">
                    <path d="M1715.02,2643.34C1709.91,2665.27 1701.17,2691.79 1701.17,2691.79C1701.17,2691.79 1744.59,2706.43 1748.2,2707.27C1760.13,2710.05 1775.74,2686.83 1783.07,2655.4C1790.41,2623.97 1786.69,2596.23 1774.76,2593.45C1766.03,2591.41 1731.28,2579.28 1731.28,2579.28C1731.28,2579.28 1716.99,2634.91 1715.02,2643.34Z" style="fill:rgb(228,81,205);fill-rule:nonzero;"/>
                    <path d="M1776.48,2616.97C1774.93,2615.14 1773.13,2613.94 1771.09,2613.47C1766.97,2612.5 1757.05,2609.28 1747.73,2606.15C1747.34,2603.51 1746.83,2601 1746.19,2598.65C1746.19,2598.66 1746.18,2598.67 1746.18,2598.68C1745.79,2597.23 1745.34,2595.83 1744.85,2594.51C1755.21,2598 1767.31,2601.96 1772.15,2603.06C1773.69,2604.1 1775.66,2608.89 1776.48,2616.97Z" style="fill:rgb(211,237,252);fill-rule:nonzero;"/>
                    <path d="M1750.54,2697.55C1748.55,2697.04 1735.45,2692.73 1720.53,2687.74C1727.36,2682.52 1733.83,2673.69 1738.84,2662.56C1746.71,2665.16 1753.32,2667.3 1754.63,2667.62C1755.28,2667.77 1755.94,2667.84 1756.61,2667.84C1761.68,2667.84 1767.29,2663.55 1772.58,2656.24C1765.49,2683.99 1753.78,2697 1750.54,2697.55Z" style="fill:rgb(177,61,159);fill-rule:nonzero;"/>
                    <path d="M1713.68,2685.45C1731.23,2691.34 1748.25,2696.96 1750.54,2697.55C1753.89,2696.98 1766.36,2683.02 1773.34,2653.13C1780.31,2623.23 1775.31,2605.2 1772.15,2603.06C1766.24,2601.71 1749.45,2596.09 1738.27,2592.27C1734.03,2608.8 1726.16,2639.62 1724.76,2645.61C1721.45,2659.8 1716.73,2675.64 1713.68,2685.45ZM1750.38,2717.53C1748.91,2717.53 1747.43,2717.36 1745.93,2717.01C1742.25,2716.15 1711.17,2705.71 1697.97,2701.27C1692.76,2699.51 1689.95,2693.88 1691.67,2688.66C1691.76,2688.4 1700.33,2662.29 1705.28,2641.06C1707.25,2632.62 1721.01,2579.07 1721.59,2576.79C1722.29,2574.09 1724.09,2571.79 1726.55,2570.47C1729.02,2569.15 1731.93,2568.92 1734.57,2569.84C1744.1,2573.17 1770.3,2582.14 1777.03,2583.71C1782.88,2585.07 1793.14,2590.61 1796.05,2612.35C1797.78,2625.22 1796.63,2641.32 1792.81,2657.67C1785.85,2687.53 1769.9,2717.53 1750.38,2717.53Z" style="fill:rgb(55,26,69);fill-rule:nonzero;"/>
                    <path d="M1688.1,2628.98C1680.77,2660.41 1687.69,2688.89 1703.57,2692.59C1719.45,2696.3 1738.26,2673.82 1745.6,2642.39C1752.93,2610.96 1746.01,2582.48 1730.13,2578.77C1714.25,2575.07 1695.43,2597.54 1688.1,2628.98Z" style="fill:rgb(255,75,226);fill-rule:nonzero;"/>
                    <path d="M1740.82,2657.9C1740.82,2657.88 1740.83,2657.85 1740.83,2657.83C1741.39,2656.39 1741.93,2654.93 1742.44,2653.43C1741.93,2654.95 1741.38,2656.44 1740.82,2657.9ZM1745.6,2642.41C1746.23,2639.71 1746.75,2637.04 1747.17,2634.41C1746.75,2637.04 1746.23,2639.72 1745.6,2642.41ZM1747.18,2634.4C1747.18,2634.37 1747.19,2634.34 1747.19,2634.31C1747.19,2634.34 1747.18,2634.37 1747.18,2634.4Z" style="fill:rgb(211,237,252);fill-rule:nonzero;"/>
                    <path d="M1726.59,2588.37C1718.52,2588.37 1704.21,2603.94 1697.84,2631.25C1691.12,2660.04 1698.09,2681.05 1705.84,2682.86C1713.59,2684.68 1729.14,2668.91 1735.86,2640.12C1742.58,2611.32 1735.61,2590.32 1727.86,2588.51C1727.45,2588.42 1727.03,2588.37 1726.59,2588.37ZM1707.09,2703C1705.16,2703 1703.22,2702.78 1701.3,2702.33C1679.36,2697.21 1669.5,2664.7 1678.36,2626.7C1687.23,2588.71 1710.44,2563.92 1732.4,2569.03C1754.34,2574.16 1764.2,2606.67 1755.34,2644.67C1747.25,2679.33 1727.2,2703 1707.09,2703Z" style="fill:rgb(55,26,69);fill-rule:nonzero;"/>
                </g>
                <path d="M1830.15,2861.79C1829.94,2861.79 1829.73,2861.78 1829.52,2861.77C1824.01,2861.42 1819.82,2856.68 1820.16,2851.16L1827.36,2735.73C1827.65,2731.02 1831.21,2727.15 1835.88,2726.46L1871.43,2721.22L1891.05,2610.68C1892.01,2605.25 1897.21,2601.6 1902.64,2602.59C1908.08,2603.55 1911.71,2608.74 1910.74,2614.18L1889.86,2731.81C1889.11,2736.04 1885.73,2739.32 1881.48,2739.95L1846.82,2745.06L1840.12,2852.41C1839.79,2857.71 1835.39,2861.79 1830.15,2861.79Z" style="fill:rgb(55,26,69);fill-rule:nonzero;"/>
                <path d="M2329.15,3385.03C2323.37,3385.03 2318.18,3380.99 2316.93,3375.11C2315.51,3368.35 2319.83,3361.72 2326.58,3360.29C2479.08,3328.1 2504.98,3041.64 2505.22,3038.75C2505.8,3031.87 2511.89,3026.78 2518.73,3027.35C2525.61,3027.93 2530.72,3033.98 2530.13,3040.85C2529.07,3053.41 2502.24,3348.77 2331.75,3384.76C2330.88,3384.94 2330.01,3385.03 2329.15,3385.03Z" style="fill:rgb(55,26,69);fill-rule:nonzero;"/>
                <path d="M1611.81,2179.16C1587.53,2179.16 1561.94,2172.97 1535.49,2158.02C1529.48,2154.63 1527.36,2147 1530.75,2140.99C1534.15,2134.98 1541.78,2132.86 1547.78,2136.26C1602.7,2167.28 1660.33,2158.06 1719.1,2108.84C1764.75,2070.61 1793.84,2021.71 1794.13,2021.22C1797.63,2015.28 1805.29,2013.29 1811.24,2016.79C1817.18,2020.29 1819.17,2027.95 1815.67,2033.9C1814.64,2035.65 1728.64,2179.16 1611.81,2179.16Z" style="fill:rgb(55,26,69);fill-rule:nonzero;"/>
                <path d="M1520.56,1749.88C1515.05,1749.88 1509.75,1746.87 1507.07,1741.63C1497.19,1722.26 1485.96,1710.25 1474.06,1697.52C1461.45,1684.02 1448.4,1670.07 1436.56,1647.41C1432.69,1640.01 1435.56,1630.87 1442.96,1627C1450.37,1623.14 1459.5,1626 1463.37,1633.4C1473.31,1652.42 1484.41,1664.29 1496.16,1676.87C1508.96,1690.56 1522.19,1704.72 1534.02,1727.88C1537.81,1735.32 1534.86,1744.43 1527.42,1748.22C1525.22,1749.35 1522.87,1749.88 1520.56,1749.88Z" style="fill:rgb(55,26,69);fill-rule:nonzero;"/>
                <path d="M1598.26,1718.83C1591.83,1718.83 1585.87,1714.7 1583.84,1708.24C1565.03,1648.45 1562.65,1621.93 1562.56,1620.83C1561.87,1612.5 1568.05,1605.19 1576.38,1604.5C1584.66,1603.84 1591.98,1609.96 1592.7,1618.27C1592.75,1618.8 1595.21,1643.62 1612.69,1699.17C1615.2,1707.13 1610.77,1715.63 1602.8,1718.13C1601.29,1718.61 1599.76,1718.83 1598.26,1718.83Z" style="fill:rgb(55,26,69);fill-rule:nonzero;"/>
                <path d="M2435.46,2912.09C2271.06,3047.3 1981.43,2895.4 2013.11,2791.04C2023.82,2755.73 2059.92,2752.99 2059.92,2752.99C2059.92,2752.99 2289.28,2905.78 2444.98,2801.17C2444.98,2801.17 2492.45,2865.22 2435.46,2912.09Z" style="fill:white;fill-rule:nonzero;"/>
                <path d="M2275.99,2950C2209.74,2950 2142.28,2928.02 2092.05,2894.49C2043.56,2862.12 2018.86,2824.17 2027.58,2795.44C2029.44,2789.31 2032.39,2784.54 2035.78,2780.83C2051.94,2854.48 2174.9,2920.48 2290.44,2920.48C2336.74,2920.48 2381.82,2909.89 2418.41,2884.96L2429.28,2897.42C2428.2,2898.43 2427.06,2899.42 2425.86,2900.41C2383.36,2935.36 2330.07,2950 2275.99,2950Z" style="fill:rgb(195,186,199);fill-rule:nonzero;"/>
                <path d="M2056.65,2768.88C2048.91,2770.76 2033.23,2776.82 2027.58,2795.44C2018.86,2824.17 2043.56,2862.12 2092.05,2894.49C2183.3,2955.4 2331.3,2978.18 2425.86,2900.41C2458.61,2873.47 2448.84,2839.91 2439.95,2822.09C2400.72,2844.61 2358.12,2853.18 2316,2853.19C2197.43,2853.19 2082.59,2785.24 2056.65,2768.88ZM2275.8,2980.89C2203.84,2980.89 2131.11,2956.93 2075.25,2919.65C2014.34,2878.99 1985.7,2829.27 1998.63,2786.65C2012.2,2741.95 2056.88,2738.05 2058.78,2737.91C2062.13,2737.65 2065.49,2738.53 2068.3,2740.4C2070.51,2741.87 2291.15,2886.31 2436.54,2788.61C2443.25,2784.1 2452.32,2785.67 2457.13,2792.16C2476.51,2818.31 2498.94,2879.47 2445.07,2923.77C2396.22,2963.95 2336.28,2980.89 2275.8,2980.89Z" style="fill:rgb(55,26,69);fill-rule:nonzero;"/>
                <path d="M2950.36,3051.05C2950.36,3051.05 2939.45,3074.47 2916.62,3082.65C2905.2,3086.73 2889.71,3088.84 2872.31,3089.51C2856.84,3090.11 2839.93,3089.6 2823.01,3088.42C2785.69,3085.77 2748.43,3079.74 2727.37,3074.79C2683.06,3064.4 2638.05,3044.3 2594.86,3017.68C2535.83,2981.3 2480.2,2932.79 2434.26,2880.33C2391.1,2831.02 2356.53,2778.21 2335.88,2728.78L2335.26,2672.32L2334.42,2595.17L2331.41,2322.12L2330.72,2260.1C2331.51,2261.65 2349.05,2296.28 2379.09,2347.82C2381.97,2352.73 2384.93,2357.77 2388.01,2362.96C2422.48,2421.03 2470.66,2496.47 2527.41,2569.69C2615.74,2683.74 2724.88,2792.52 2835.51,2822.37C2964.36,2857.13 3031.22,2864.45 3039.21,2909.87C3047.33,2955.95 2990.03,2972.42 2990.03,2972.42C2990.03,2972.42 3002.42,3004.42 2986.71,3028.53C2974.28,3047.67 2950.36,3051.05 2950.36,3051.05Z" style="fill:white;fill-rule:nonzero;"/>
                <path d="M2808.16,2940.16C2817.41,2932.84 2824.18,2928.48 2824.18,2928.48C2824.18,2928.48 2819.19,2933.91 2808.16,2940.16Z" style="fill:rgb(185,175,190);fill-rule:nonzero;"/>
                <path d="M2820.46,3073.06C2804.62,3071.84 2788.73,3069.98 2772.98,3067.72C2741.37,3063.26 2711.53,3056.43 2682.45,3044.61C2678.81,3043.22 2675.12,3041.95 2671.51,3040.45L2660.85,3035.53C2653.78,3032.13 2646.51,3029.21 2639.61,3025.45L2618.89,3014.17L2613.71,3011.34L2608.7,3008.2L2598.67,3001.93C2585.09,2993.9 2572.42,2984.38 2559.45,2975.34C2553.05,2970.71 2546.96,2965.62 2540.69,2960.79C2534.45,2955.92 2528.2,2951.06 2522.32,2945.74L2504.38,2930.14C2498.55,2924.77 2492.9,2919.2 2487.15,2913.74L2478.56,2905.52L2470.34,2896.93L2453.95,2879.69C2432.75,2856.09 2414.1,2830.43 2396.11,2804.59C2378.01,2778.68 2361.14,2752.7 2340.54,2726.84L2340.45,2726.73C2339.49,2725.52 2338,2724.77 2336.39,2724.77C2336.34,2724.77 2336.29,2724.77 2336.24,2724.78C2338.03,2715.67 2346.19,2710.04 2354.55,2710.04C2359.8,2710.04 2365.12,2712.27 2368.98,2717.26C2424.81,2789.45 2520,2901.98 2589.75,2929.14C2646.76,2951.32 2691.72,2958.74 2726.36,2958.74C2766.73,2958.74 2793.09,2948.67 2808.16,2940.16C2781.44,2961.2 2734.11,3006.87 2769.09,3043.69C2776.74,3051.76 2797.31,3063.33 2820.46,3073.06Z" style="fill:rgb(185,175,190);fill-rule:nonzero;"/>
                <path d="M2335.22,2257.78C2363.5,2293.92 2387.23,2332.24 2411.17,2370.48C2435.32,2408.55 2458.64,2447.15 2484.07,2484.36C2509.38,2521.62 2536.49,2557.62 2564.91,2592.39C2593.4,2627.1 2623.46,2660.46 2655.72,2691.28C2687.91,2722.13 2722.66,2750.21 2760.27,2772.75C2778.93,2784.33 2798.74,2793.42 2818.84,2801.16C2838.67,2808.02 2861.18,2813.54 2882.99,2819.16C2904.93,2824.79 2926.96,2830.19 2949.17,2836.19C2960.27,2839.22 2971.41,2842.38 2982.63,2846.13C2993.84,2849.9 3005.16,2854.11 3016.48,2860.21C3022.13,2863.31 3027.8,2866.9 3033.19,2871.49C3038.56,2876.06 3043.65,2881.77 3047.43,2888.51C3051.21,2895.24 3053.63,2902.76 3054.41,2910.04C3054.66,2913.74 3055.41,2917.31 3054.93,2921.15C3054.68,2924.94 3054.47,2928.73 3053.35,2932.45C3052.87,2934.3 3052.45,2936.19 3051.85,2938L3049.61,2943.26C3048.24,2946.87 3045.99,2949.81 3044.07,2953.01C3039.74,2958.89 3034.83,2964.18 3029.45,2968.34C3024.14,2972.7 3018.49,2976.19 3012.71,2979.22C3009.83,2980.77 3006.88,2982.12 3003.88,2983.4C3000.76,2984.69 2998.08,2985.76 2994.21,2986.95L3004.13,2966.95C3005.3,2970.09 3005.84,2972.11 3006.53,2974.67C3007.17,2977.1 3007.71,2979.53 3008.16,2981.98C3009.09,2986.88 3009.61,2991.89 3009.74,2997.02C3010.04,3007.22 3008.48,3018.14 3003.86,3028.46C2999.4,3038.77 2991.38,3048 2982.37,3053.98C2977.86,3057.06 2973.12,3059.54 2968.25,3061.51C2965.83,3062.52 2963.35,3063.34 2960.83,3064.1C2959.55,3064.46 2958.3,3064.82 2956.97,3065.13C2955.57,3065.46 2954.52,3065.69 2952.47,3066.02L2964.07,3057.43C2962.6,3060.44 2961.55,3062.17 2960.19,3064.36C2958.9,3066.43 2957.51,3068.42 2956.08,3070.37C2953.19,3074.25 2949.95,3077.92 2946.35,3081.35C2939.3,3088.15 2930.18,3094.15 2920.34,3097.32C2901.91,3103.16 2884.85,3104.17 2867.9,3104.75C2834.13,3105.41 2801.31,3102.32 2768.62,3097.65C2736.21,3093.15 2702.44,3085.45 2671.52,3072.82C2667.61,3071.32 2663.64,3069.94 2659.78,3068.33L2648.41,3063.1C2640.88,3059.5 2633.12,3056.33 2625.8,3052.37L2603.89,3040.44L2598.42,3037.44L2593.15,3034.15L2582.6,3027.55C2568.3,3019.08 2555.05,3009.15 2541.48,2999.68C2534.78,2994.83 2528.43,2989.53 2521.89,2984.48C2515.37,2979.4 2508.85,2974.32 2502.72,2968.78L2484.04,2952.52C2477.97,2946.93 2472.08,2941.15 2466.1,2935.46L2457.16,2926.9L2448.59,2917.96L2431.54,2900.01L2415.25,2881.34C2412.53,2878.24 2409.68,2875.24 2407.06,2872.04L2399.21,2862.43C2394.05,2855.96 2388.52,2849.78 2383.69,2843.04C2378.8,2836.33 2374.05,2829.52 2369.38,2822.67C2351.63,2794.72 2336.08,2764.44 2331.23,2730.72C2330.82,2727.87 2332.8,2725.24 2335.64,2724.83C2337.54,2724.55 2339.34,2725.34 2340.45,2726.73L2340.54,2726.84C2361.14,2752.7 2378.01,2778.68 2396.11,2804.59C2414.1,2830.43 2432.75,2856.09 2453.95,2879.69L2470.34,2896.93L2478.56,2905.52L2487.15,2913.74C2492.9,2919.2 2498.55,2924.77 2504.38,2930.14L2522.32,2945.74C2528.2,2951.06 2534.45,2955.92 2540.69,2960.79C2546.96,2965.62 2553.05,2970.71 2559.45,2975.34C2572.42,2984.38 2585.09,2993.9 2598.67,3001.93L2608.7,3008.2L2613.71,3011.34L2618.89,3014.17L2639.61,3025.45C2646.51,3029.21 2653.78,3032.13 2660.85,3035.53L2671.51,3040.45C2675.12,3041.95 2678.81,3043.22 2682.45,3044.61C2711.53,3056.43 2741.37,3063.26 2772.98,3067.72C2804.31,3072.22 2836.18,3075.13 2867.14,3074.51C2882.44,3074.11 2898.05,3072.72 2910.53,3068.71C2913.48,3067.75 2915.82,3066.65 2918.35,3065.03C2920.84,3063.53 2923.23,3061.62 2925.48,3059.45C2927.74,3057.3 2929.89,3054.9 2931.83,3052.29C2932.79,3050.98 2933.72,3049.64 2934.57,3048.28C2935.37,3047.05 2936.34,3045.27 2936.66,3044.65L2940.09,3037.82L2948.25,3036.06L2950.01,3035.69C2950.75,3035.53 2951.54,3035.29 2952.31,3035.08C2953.86,3034.6 2955.43,3034.1 2956.92,3033.46C2959.94,3032.24 2962.77,3030.74 2965.28,3029.02C2970.39,3025.55 2973.91,3021.37 2976.25,3016.09C2978.61,3010.86 2979.72,3004.55 2979.5,2997.77C2979.42,2994.4 2979.07,2990.93 2978.41,2987.47C2978.1,2985.75 2977.71,2984.02 2977.27,2982.34C2976.88,2980.78 2976.24,2978.71 2975.93,2977.87L2970.22,2962.7L2985.86,2957.87C2987.41,2957.39 2990.03,2956.42 2992.15,2955.52C2994.36,2954.56 2996.58,2953.56 2998.7,2952.42C3002.95,2950.18 3007.01,2947.66 3010.46,2944.79C3014.1,2942.03 3016.87,2938.81 3019.32,2935.62C3020.2,2933.9 3021.62,2932.37 3022.14,2930.59L3023.29,2928.04C3023.56,2927.16 3023.69,2926.24 3023.94,2925.36C3024.59,2923.64 3024.55,2921.72 3024.71,2919.86C3025.11,2918.03 3024.45,2915.96 3024.42,2914C3024.06,2910.01 3022.82,2906.52 3021.08,2903.36C3017.63,2897.06 3010.7,2891.49 3002.04,2886.78C2993.36,2882.1 2983.35,2878.27 2973.05,2874.82C2962.74,2871.37 2952.03,2868.33 2941.24,2865.38C2919.61,2859.53 2897.54,2854.12 2875.5,2848.47C2853.37,2842.72 2831.7,2837.56 2808.57,2829.61C2786.33,2821.1 2764.73,2811.09 2744.78,2798.73C2704.48,2774.56 2668.2,2745.11 2634.86,2713.19C2568.07,2649.24 2511.46,2576.61 2458.76,2501.88C2432.43,2464.47 2406.75,2426.57 2383.81,2387.01C2360.94,2347.44 2339.54,2306.91 2326.21,2262.32C2325.4,2259.61 2326.94,2256.76 2329.65,2255.95C2331.73,2255.33 2333.88,2256.08 2335.14,2257.69L2335.22,2257.78Z" style="fill:rgb(55,26,69);fill-rule:nonzero;"/>
                <path d="M1760.72,1794.34C1655.94,2576.08 2736.14,2760.29 2917.48,2022.68C3043.72,1225.01 1926.97,1035.63 1760.72,1794.34Z" style="fill:white;fill-rule:nonzero;"/>
                <path d="M1760.72,1794.34C1655.94,2576.08 2736.14,2760.29 2917.48,2022.68C3043.72,1225.01 1926.97,1035.63 1760.72,1794.34Z" style="fill:white;fill-rule:nonzero;"/>
                <path d="M2334.42,2595.17C2170.81,2590.55 2009.26,2521.54 1899.39,2395.88C1869.15,2361.31 1842.82,2322.44 1821.44,2279.43C1827.49,2268.35 1833.78,2257.2 1840.31,2245.97C1846.23,2254.65 1852.39,2263.17 1858.82,2271.53C1946.63,2385.86 2077.05,2464.36 2226.05,2492.58C2261.86,2499.36 2297.77,2503.07 2333.41,2503.78L2334.42,2595.17Z" style="fill:rgb(185,175,190);fill-rule:nonzero;"/>
                <path d="M1821.44,2279.43C1818.7,2273.92 1816.05,2268.35 1813.47,2262.71C1819.1,2252.56 1824.96,2242.31 1831.04,2231.95C1834.06,2236.67 1837.15,2241.34 1840.31,2245.97C1833.78,2257.2 1827.49,2268.35 1821.44,2279.43Z" style="fill:rgb(55,26,69);fill-rule:nonzero;"/>
                <path d="M2351.91,2595.41C2346.08,2595.41 2340.25,2595.33 2334.42,2595.17L2333.41,2503.78C2337.61,2503.86 2341.81,2503.91 2346.01,2503.91C2382.35,2503.91 2418.37,2500.77 2453.64,2494.58C2455.34,2497.02 2457.05,2499.45 2458.76,2501.88C2475.97,2526.28 2493.59,2550.45 2511.84,2574.17C2467.43,2586.31 2421.76,2593.2 2375.93,2594.97C2367.93,2595.26 2359.92,2595.41 2351.91,2595.41Z" style="fill:rgb(185,175,190);fill-rule:nonzero;"/>
                <path d="M2511.84,2574.17C2493.59,2550.45 2475.97,2526.28 2458.76,2501.88C2457.05,2499.45 2455.34,2497.02 2453.64,2494.58C2459.19,2493.61 2464.71,2492.56 2470.22,2491.43C2488.04,2517.21 2507.18,2543.59 2527.41,2569.69C2522.24,2571.26 2517.05,2572.75 2511.84,2574.17Z" style="fill:rgb(55,26,69);fill-rule:nonzero;"/>
                <path d="M1760.72,1794.34C1655.94,2576.08 2736.14,2760.29 2917.48,2022.68C3043.72,1225.01 1926.97,1035.63 1760.72,1794.34Z" style="fill:white;fill-rule:nonzero;"/>
                <path d="M1771.34,1796.21C1718.82,2189.61 1964.25,2416.63 2230.86,2467.12C2267.69,2474.1 2305.77,2477.71 2344.25,2477.71C2578,2477.72 2827.09,2344.43 2906.9,2020.55C2969.87,1621.31 2714.07,1385.85 2449.67,1336C2182.66,1285.66 1856.58,1408.22 1771.34,1796.21ZM2346.01,2499.56C2306.51,2499.56 2266.62,2495.84 2226.85,2488.31C2078.9,2460.29 1949.42,2382.37 1862.27,2268.89C1764.21,2141.23 1725.4,1976.64 1750.03,1792.91L1750.18,1792.03C1789.59,1612.2 1884.64,1472.4 2025.06,1387.76C2150.36,1312.23 2302.57,1286.32 2453.66,1314.81C2604.43,1343.23 2735.55,1422.67 2822.89,1538.5C2921.37,1669.11 2957.76,1837.12 2928.13,2024.36L2927.95,2025.25C2884.9,2200.35 2788.67,2336.22 2649.65,2418.18C2558.65,2471.83 2453.82,2499.56 2346.01,2499.56Z" style="fill:rgb(55,26,69);fill-rule:nonzero;"/>
                <path d="M2344.19,2473.36C2306.01,2473.36 2268.21,2469.78 2231.67,2462.86C2166.45,2450.51 2102.5,2427.5 2043.95,2394C2068.24,2404.55 2093.54,2413.42 2119.66,2420.46C2168.6,2433.67 2218.68,2440.23 2268.49,2440.23C2329.73,2440.23 2390.56,2430.33 2448.38,2410.74C2452.13,2429.14 2459.24,2445.86 2468.95,2460.37C2427.57,2469.14 2385.64,2473.37 2344.19,2473.36ZM2266.02,2409.42C2218.69,2409.42 2171.93,2403.24 2127.54,2391.26C2001.49,2357.24 1870.13,2268.59 1806.13,2117.22C1801.79,2105.68 1797.78,2093.85 1794.14,2081.76C1847.37,2179.39 1919.83,2256.21 2007.96,2307.53C2087,2353.55 2175.81,2377.24 2265.71,2377.24C2270.86,2377.24 2276.01,2377.17 2281.16,2377.01C2336.91,2376.96 2393.61,2366.46 2449.38,2343.64C2446.76,2355.76 2445.46,2367.53 2445.36,2378.86C2387.05,2399.49 2326.07,2409.42 2266.02,2409.42Z" style="fill:rgb(185,175,190);fill-rule:nonzero;"/>
                <path d="M1775.62,1796.97C1723.59,2187.42 1967.11,2412.76 2231.67,2462.86C2490.17,2511.81 2810.3,2393.98 2902.64,2019.69C2965.03,1623.44 2711.23,1389.73 2448.86,1340.27C2183.91,1290.32 1860.31,1411.97 1775.62,1796.97ZM2346.01,2503.91C2306.24,2503.91 2266.08,2500.16 2226.05,2492.58C2077.05,2464.36 1946.63,2385.86 1858.82,2271.53C1760.05,2142.94 1720.94,1977.23 1745.72,1792.33L1745.94,1791.1C1785.61,1610.07 1881.35,1469.31 2022.82,1384.04C2149.03,1307.96 2302.32,1281.87 2454.46,1310.54C2606.3,1339.17 2738.37,1419.19 2826.36,1535.89C2925.56,1667.46 2962.24,1836.61 2932.42,2025.04L2932.17,2026.29C2888.83,2202.55 2791.91,2339.36 2651.86,2421.92C2560.19,2475.97 2454.59,2503.91 2346.01,2503.91Z" style="fill:rgb(41,56,86);fill-rule:nonzero;"/>
                <path d="M1752.47,1945.19C1964.28,2604.49 2805.1,2420.92 2735.33,1818.65C2616.19,1148.81 1731.71,1241.07 1752.47,1945.19Z" style="fill:rgb(55,26,69);fill-rule:nonzero;"/>
                <path d="M1905.88,1532.8C1488,1998.75 2122.2,2632.54 2574.16,2269.25C2135.98,2330.4 1829.97,1870.59 1905.88,1532.8Z" style="fill:rgb(33,16,43);fill-rule:nonzero;"/>
                <path d="M1775.64,1796.77C1719.06,2150.16 1929.84,2337.9 2127.54,2391.26C2354.75,2452.59 2643.78,2361.78 2756.58,2069.58C2806.71,1929.05 2792.89,1765.66 2718.51,1621.67C2644.08,1477.57 2518.47,1371.41 2373.76,1330.26C2068.08,1298.89 1817.83,1545.91 1775.64,1796.77ZM2268.49,2440.23C2218.68,2440.23 2168.6,2433.67 2119.66,2420.46C1995.81,2387.04 1890.4,2312.78 1822.85,2211.38C1746.77,2097.17 1720.12,1952.14 1745.78,1791.95L1745.8,1791.84C1790.28,1527.05 2055,1266.34 2378.21,1300.3L2380.72,1300.79C2533.99,1343.95 2666.91,1455.85 2745.39,1607.79C2823.59,1759.19 2838.01,1931.35 2784.94,2080.11C2729.86,2222.79 2631.84,2329.71 2501.33,2389.68C2428.33,2423.22 2348.76,2440.23 2268.49,2440.23Z" style="fill:rgb(55,26,69);fill-rule:nonzero;"/>
                <path d="M1767.53,1942.61C1877.01,2280.42 2147.83,2383.67 2368.04,2336.03C2568,2292.76 2754.43,2116.71 2720.36,1820.85C2660.62,1486.06 2415.81,1358.74 2199.62,1381C1984.62,1403.17 1758.02,1588.36 1767.53,1942.61ZM2265.71,2377.24C2175.81,2377.24 2087,2353.55 2007.96,2307.53C1883.25,2234.92 1789.93,2111.22 1738.07,1949.82L1737.42,1947.78L1737.36,1945.64C1732.37,1776.62 1778.71,1629.98 1871.37,1521.6C1954.28,1424.6 2069.76,1363.98 2196.51,1350.91C2320.4,1338.13 2442.57,1372.24 2540.56,1446.92C2649.55,1529.98 2722.05,1657.61 2750.22,1816L2750.35,1816.91C2766.62,1957.31 2735.34,2084.73 2659.91,2185.4C2591.63,2276.54 2490.24,2340.54 2374.44,2365.59C2338.4,2373.39 2301.96,2377.24 2265.71,2377.24Z" style="fill:rgb(55,26,69);fill-rule:nonzero;"/>
                <path d="M2759.58,2435.94C2548.32,2616.81 2349.26,2420.3 2533.55,2227.3C2748.01,2029.61 2960.81,2239.64 2759.58,2435.94Z" style="fill:white;fill-rule:nonzero;"/>
                <path d="M2516.14,2467.32C2512.11,2464.16 2508.37,2460.75 2504.93,2457.12C2463.72,2413.61 2458.9,2331.21 2539.08,2243.52C2538.77,2268.13 2553.3,2281.51 2575.4,2287.27C2574.74,2287.87 2574.08,2288.49 2573.42,2289.1L2572.78,2289.73C2508.07,2357.52 2497.5,2422.47 2516.14,2467.32Z" style="fill:rgb(185,175,190);fill-rule:nonzero;"/>
                <path d="M2759.58,2435.94L2759.63,2435.94L2759.58,2435.94ZM2544.15,2238.09C2458.72,2327.8 2462.87,2412.71 2504.93,2457.12C2549.44,2504.12 2644.89,2513.99 2749.37,2424.77C2842.35,2333.83 2838.61,2243.77 2795.72,2198.54C2747.42,2147.6 2645.54,2144.86 2544.15,2238.09ZM2594.24,2522.65C2547.61,2522.65 2508.67,2505.06 2482.97,2477.93C2431.01,2423.06 2423.11,2321.06 2522.61,2216.85L2523.3,2216.18C2639.19,2109.35 2759.11,2115.97 2817.67,2177.73C2870.5,2233.44 2878.16,2341.4 2770.14,2446.77L2769.41,2447.43C2706.62,2501.19 2645.74,2522.65 2594.24,2522.65Z" style="fill:rgb(55,26,69);fill-rule:nonzero;"/>
                <path d="M2757.66,2454.61C2586.3,2601 2434.69,2456.3 2583.72,2300.18C2758.71,2137.36 2923.29,2294.8 2757.66,2454.61Z" style="fill:white;fill-rule:nonzero;"/>
                <path d="M2757.66,2454.61L2757.71,2454.61L2757.66,2454.61ZM2594.35,2310.94C2527.32,2381.36 2527.48,2444.75 2557.4,2476.38C2589.98,2510.8 2663.33,2515.12 2747.48,2443.41C2821.88,2371.43 2822.49,2303.52 2791.52,2270.84C2755.71,2233.03 2676.5,2234.7 2594.35,2310.94ZM2619.78,2530.5C2584.07,2530.5 2554.69,2517.52 2535.43,2497.17C2495.62,2455.1 2491.73,2374.64 2572.78,2289.73L2573.42,2289.1C2670.1,2199.15 2767.36,2201.35 2813.48,2250.03C2854.42,2293.24 2857.7,2379.1 2768.16,2465.49L2767.48,2466.11C2713.55,2512.18 2662.2,2530.5 2619.78,2530.5Z" style="fill:rgb(55,26,69);fill-rule:nonzero;"/>
                <path d="M2508.93,2130.98C2443.97,2130.98 2410.12,2050.89 2469.47,1995.9C2492.38,1976.95 2514.79,1969.1 2534.58,1969.1C2601.12,1969.1 2638.25,2057.71 2566.79,2111.61C2546.06,2125.2 2526.37,2130.98 2508.93,2130.98Z" style="fill:rgb(34,239,240);fill-rule:nonzero;"/>
                <path d="M2378.93,2206.1C2350.49,2206.1 2333.88,2170.03 2366.62,2146.9C2373.65,2142.85 2380.51,2141.08 2386.79,2141.08C2415.23,2141.08 2431.84,2177.16 2399.11,2200.29C2392.07,2204.34 2385.21,2206.1 2378.93,2206.1Z" style="fill:rgb(255,75,226);fill-rule:nonzero;"/>
                <path d="M2572.3,1652.93C2459.17,1568.85 2350.53,1537.34 2245.23,1537.34C2131.07,1537.34 2020.84,1574.37 1913.07,1621.58C2001.97,1473.32 2114,1420.23 2220.53,1420.23C2389.68,1420.23 2545.01,1553.98 2572.3,1652.93Z" style="fill:white;fill-rule:nonzero;"/>
                <path d="M2619.74,2500.43C2593,2500.43 2571.42,2491.19 2557.4,2476.38C2527.48,2444.75 2527.32,2381.36 2594.35,2310.94C2595.68,2309.71 2597.01,2308.49 2598.34,2307.3C2583.03,2382.16 2642.66,2421.38 2709.73,2421.38C2732.96,2421.38 2757.07,2416.68 2779.29,2407.13C2770.69,2419.01 2760.16,2431.15 2747.48,2443.41C2699.55,2484.25 2655.12,2500.43 2619.74,2500.43Z" style="fill:rgb(185,175,190);fill-rule:nonzero;"/>
                <path d="M2622.08,2510.33C2540.21,2510.33 2482.76,2441.3 2542.35,2331.22C2559.74,2304.72 2584.48,2282.9 2612.31,2267.41C2605.42,2281.67 2600.86,2294.96 2598.34,2307.3C2597.01,2308.49 2595.68,2309.71 2594.35,2310.94C2527.32,2381.36 2527.48,2444.75 2557.4,2476.38C2571.42,2491.19 2593,2500.43 2619.74,2500.43C2655.12,2500.43 2699.55,2484.25 2747.48,2443.41C2760.16,2431.15 2770.69,2419.01 2779.29,2407.13C2786.35,2404.1 2793.22,2400.57 2799.81,2396.55C2750.26,2475.71 2680.05,2510.33 2622.08,2510.33Z" style="fill:rgb(55,26,69);fill-rule:nonzero;"/>
                <path d="M2683.88,2120.75C2683.62,2120.75 2683.35,2120.74 2683.08,2120.73C2659.3,2119.49 2649.87,2108.89 2646.14,2100.23C2636.1,2076.86 2658.66,2047.7 2665.82,2039.32C2671.25,2032.97 2680.79,2032.22 2687.14,2037.64C2693.49,2043.06 2694.25,2052.6 2688.84,2058.95C2679.32,2070.17 2672.71,2084.43 2673.94,2088.29C2673.97,2088.2 2676.39,2090.09 2684.66,2090.52C2693,2090.95 2699.41,2098.07 2698.97,2106.41C2698.55,2114.48 2691.88,2120.75 2683.88,2120.75Z" style="fill:rgb(55,26,69);fill-rule:nonzero;"/>
                <path d="M2810.1,2821.81C2902.91,2851.13 2961.04,2895.19 2954.92,2921.01C2950.43,2939.93 2929.4,2961.5 2890.43,2951.01C2863.82,2943.84 2833.36,2921.79 2833.36,2921.79C2833.36,2921.79 2784.82,2959.92 2745.61,2962.42" style="fill:white;fill-rule:nonzero;"/>
                <path d="M2814.66,2807.38C2841.4,2815.89 2867.67,2826.14 2892.98,2839.16C2905.61,2845.74 2918.01,2852.96 2929.93,2861.53C2935.89,2865.81 2941.73,2870.43 2947.34,2875.68C2952.93,2880.98 2958.39,2886.76 2963.14,2894.27C2965.49,2898.03 2967.66,2902.39 2969.12,2907.6C2969.85,2910.18 2970.33,2913.1 2970.43,2916.18C2970.4,2917.77 2970.51,2919.28 2970.23,2920.94C2970,2922.44 2969.7,2924.51 2969.37,2925.43C2966.91,2934.69 2962.34,2942.95 2955.99,2949.71C2949.7,2956.49 2941.72,2961.72 2933.2,2964.83C2924.67,2967.99 2915.77,2969.02 2907.35,2968.79C2890.32,2968.5 2875.26,2962.75 2861.84,2956.86C2848.24,2950.68 2836.12,2943.62 2824.01,2934.72L2843.21,2934.34C2839.38,2937.2 2836,2939.47 2832.27,2941.77C2828.62,2944.03 2825,2946.33 2821.18,2948.32C2813.62,2952.4 2805.93,2956.26 2797.79,2959.32C2793.74,2960.9 2789.66,2962.37 2785.41,2963.53C2783.29,2964.12 2781.22,2964.76 2779.09,2965.29L2772.6,2966.62C2763.89,2968.17 2754.83,2968.82 2745.93,2967.46C2743.12,2967.03 2741.18,2964.39 2741.61,2961.58C2741.91,2959.64 2743.25,2958.12 2744.97,2957.5L2745.29,2957.39C2752.68,2954.76 2759.56,2951.53 2766.34,2948.01C2773.1,2944.41 2779.64,2940.31 2786.15,2936.21C2792.61,2932 2799.02,2927.62 2805.28,2923.06C2811.49,2918.6 2817.95,2913.68 2823.5,2909.25L2832.45,2902.11L2842.71,2908.87C2852.99,2915.64 2864.41,2922.7 2875.44,2928.38C2886.61,2934.08 2897.83,2938.18 2908.3,2938.51C2918.79,2938.98 2927.79,2935.65 2933.8,2929.14C2936.87,2925.97 2939.01,2921.86 2940.07,2917.92C2940.32,2917.22 2940.08,2917.55 2940.19,2917.38C2940.28,2917.36 2940.13,2917.14 2940.2,2917.03C2940.17,2916.71 2940.14,2916.22 2939.93,2915.52C2939.53,2914.16 2938.74,2912.27 2937.45,2910.25C2932.16,2901.94 2922.42,2893.36 2912.26,2886.08C2901.97,2878.67 2890.69,2872.08 2879.08,2866.03C2855.75,2854.02 2830.91,2844.29 2805.54,2836.23L2805.49,2836.21C2797.53,2833.68 2793.13,2825.18 2795.66,2817.22C2798.19,2809.26 2806.69,2804.85 2814.65,2807.38L2814.66,2807.38Z" style="fill:rgb(55,26,69);fill-rule:nonzero;"/>
                <path d="M2495.7,2955.23C2490.1,2955.23 2485.01,2951.44 2483.58,2945.77C2445.5,2794.46 2639.62,2702.23 2647.9,2698.38C2654.15,2695.47 2661.59,2698.18 2664.5,2704.44C2667.41,2710.69 2664.7,2718.13 2658.45,2721.05C2656.61,2721.91 2474.79,2808.42 2507.83,2939.67C2509.51,2946.37 2505.45,2953.16 2498.76,2954.84C2497.73,2955.1 2496.71,2955.23 2495.7,2955.23Z" style="fill:rgb(55,26,69);fill-rule:nonzero;"/>
                <path d="M2992.36,2984.69C2980.25,2988.28 2967.24,2989.97 2953.99,2989.63C2940.67,2989.27 2927.89,2986.16 2916.22,2983.02C2904.52,2979.84 2893.21,2976.6 2881.61,2973.74C2870.03,2970.76 2858.25,2968.34 2846.34,2965.4L2846.31,2965.39C2845.33,2965.15 2844.74,2964.17 2844.98,2963.19C2845.16,2962.46 2845.77,2961.94 2846.48,2961.83C2858.66,2960.02 2870.96,2959.06 2883.34,2958.95C2895.69,2958.89 2908.18,2959.7 2920.19,2960.83C2932.23,2961.99 2943.37,2962.66 2954.21,2962.52C2965.09,2962.3 2976.12,2960.94 2987.7,2960.13L2987.91,2960.11C2994.83,2959.63 3000.84,2964.84 3001.32,2971.76C3001.74,2977.75 2997.89,2983.05 2992.36,2984.69Z" style="fill:rgb(55,26,69);fill-rule:nonzero;"/>
                <path d="M2954.24,3062.92C2948.52,3065.54 2941.96,3066.71 2935.74,3066.65C2929.49,3066.64 2923.6,3065.44 2918.28,3063.82C2907.6,3060.59 2898.98,3055.57 2890.62,3051.26C2874.17,3042.53 2856.61,3034.54 2839.1,3025.58L2839.07,3025.57C2838.17,3025.11 2837.81,3024 2838.27,3023.1C2838.59,3022.47 2839.22,3022.11 2839.88,3022.1C2849.9,3021.96 2859.74,3022.85 2869.58,3024.15C2879.4,3025.54 2889.19,3027.43 2898.92,3030.14C2908.51,3032.83 2917.56,3035.71 2925.47,3037.65C2933.54,3039.58 2939.74,3039.98 2946.48,3039.16L2947.5,3039.03C2954.39,3038.19 2960.65,3043.09 2961.49,3049.98C2962.17,3055.54 2959.08,3060.71 2954.24,3062.92Z" style="fill:rgb(55,26,69);fill-rule:nonzero;"/>
                <path d="M2710.28,3160.91C2709,3173.88 2705.67,3186.31 2701.5,3198.55C2697.24,3210.73 2691.96,3222.64 2685.56,3234C2679.2,3245.37 2672.09,3256.52 2663.38,3266.41C2654.92,3276.48 2645.02,3285.44 2634.03,3292.78C2627.06,3297.43 2617.63,3295.56 2612.97,3288.58C2609.06,3282.73 2609.75,3275.15 2614.2,3270.1L2614.8,3269.42C2622.6,3260.6 2631.15,3252.89 2639.1,3244.34C2647.21,3236 2655.39,3227.54 2663.12,3218.51C2670.91,3209.54 2678.39,3200.11 2685.5,3190.27C2692.71,3180.48 2699.59,3170.22 2706.14,3159.65L2706.21,3159.53C2706.85,3158.5 2708.21,3158.18 2709.25,3158.82C2709.98,3159.28 2710.35,3160.1 2710.28,3160.91Z" style="fill:rgb(55,26,69);fill-rule:nonzero;"/>
            </g>
        </g>
    </g>
</svg>
